<svg width="46" height="46" viewBox="0 0 46 46" fill="none" xmlns="http://www.w3.org/2000/svg">
<g clip-path="url(#clip0)">
<path d="M30.761 24.3792C28.6911 21.1501 25.1657 19.222 21.3305 19.222C17.4953 19.222 13.97 21.1501 11.9005 24.3792L6.91272 32.1602C6.08518 33.451 5.70334 34.9425 5.80828 36.4723C5.91321 38.0025 6.49544 39.4274 7.4918 40.5939C8.48885 41.7594 9.80633 42.5561 11.3017 42.8979C12.7971 43.2397 14.3301 43.0937 15.7346 42.4764L15.8287 42.4347C19.3628 40.9122 23.4012 40.9263 26.9261 42.4764C27.8354 42.8762 28.7988 43.0783 29.7709 43.0783C30.2995 43.0783 30.8312 43.0183 31.358 42.8983C32.8534 42.5568 34.1708 41.7601 35.1682 40.5943C36.1649 39.4288 36.7475 38.0035 36.8528 36.473C36.9581 34.9425 36.5763 33.4513 35.7487 32.1598L30.761 24.3792Z" fill="black"/>
<path d="M8.25619 24.3691C9.74001 23.7991 10.8673 22.6034 11.4302 21.002C11.9661 19.4782 11.9222 17.7578 11.3063 16.1575C10.69 14.5582 9.5691 13.2526 8.14985 12.4809C6.659 11.6706 5.02111 11.5386 3.53974 12.1096C0.559455 13.2555 -0.808205 16.9383 0.49137 20.3212C1.52949 23.0137 3.95071 24.7133 6.3986 24.7133C7.02364 24.7133 7.65044 24.6024 8.25619 24.3691Z" fill="black"/>
<path d="M17.934 18.273C21.6597 18.273 24.6909 14.8197 24.6909 10.5749C24.6909 6.32907 21.6597 2.875 17.934 2.875C14.2087 2.875 11.1779 6.32907 11.1779 10.5749C11.1779 14.8197 14.2087 18.273 17.934 18.273Z" fill="black"/>
<path d="M29.6031 20.1643H29.6035C30.1766 20.3545 30.7613 20.4454 31.3435 20.4454C34.0606 20.4454 36.7085 18.4678 37.7189 15.4285C38.3008 13.679 38.2625 11.8292 37.6112 10.2201C36.9296 8.53549 35.6665 7.31278 34.0543 6.77687C32.4416 6.24097 30.6978 6.46452 29.1434 7.40578C27.6585 8.30492 26.5207 9.76383 25.9396 11.5133C24.713 15.2039 26.3565 19.0848 29.6031 20.1643Z" fill="black"/>
<path d="M43.8325 19.2659L43.8314 19.2648C41.2621 17.3669 37.4196 18.1895 35.2651 21.0996C33.1127 24.0111 33.4492 27.9252 36.0147 29.8246C36.9503 30.5177 38.0558 30.849 39.1873 30.849C41.1593 30.849 43.211 29.8425 44.5825 27.9916C46.7345 25.0801 46.3983 21.1659 43.8325 19.2659Z" fill="black"/>
</g>
<defs>
<clipPath id="clip0">
<rect width="46" height="46" fill="white"/>
</clipPath>
</defs>
</svg>
